<svg
  xmlns="http://www.w3.org/2000/svg"
  version="1.1"
  viewBox="0 0 74 52.7"
>
  <path d="M50.8,10.1V2.3c0-1.3-1.1-2.3-2.4-2.3H2.4C1.1,0,0,1,0,2.3v7.8c0,1.3,1.1,2.3,2.4,2.3h9.3c1.3,0,2.4,1,2.4,2.3v35.9c0,1.3,1.1,2.3,2.4,2.3h8.3c1.3,0,2.4-1,2.4-2.3V14.6c0-1.3,1.1-2.3,2.4-2.3h18.8c1.3,0,2.4-1,2.4-2.3Z" />
  <path d="M46.8,38v-4.9c0-1.3,1.1-2.3,2.4-2.3h13.7c1.3,0,2.4-1,2.4-2.3v-7.8c0-1.3-1.1-2.3-2.4-2.3h-26.8c-1.3,0-2.4,1-2.4,2.3v29.7c0,1.3,1.1,2.3,2.4,2.3h35.5c1.3,0,2.4-1,2.4-2.2v-7.8c0-1.3-1-2.3-2.3-2.3l-22.5-.2c-1.3,0-2.4-1-2.4-2.3Z" />
</svg>
