    <svg
      xmlns="http://www.w3.org/2000/svg"
      version="1.1"
      viewBox="0 0 101.8 23.8"
    >
      <path d="M7,3.6v15.2c0,.3-.2.5-.4.5h-3.1c-.2,0-.4-.2-.4-.5V3.6H.4c-.2,0-.4-.2-.4-.5V.8C0,.5.2.3.4.3h9.3c.2,0,.4.2.4.5v2.4c0,.3-.2.5-.4.5h-2.7Z" />
      <path d="M18.9,15.4c0,2.3-1.9,4.2-4.7,4.2s-5-1.9-5-4.2v-6.3c0-2.3,2.2-4.2,5-4.2s4.7,1.9,4.7,4.2v3.4c0,.3-.2.5-.6.5h-5.4v2.3c0,.6.6,1.2,1.4,1.2s1.3-.6,1.3-1.2v-.4c0-.2.1-.3.4-.3h2.5c.2,0,.4,0,.4.4v.4ZM12.9,9.2v1.5h2.7v-1.5c0-.6-.5-1.2-1.3-1.2s-1.4.6-1.4,1.2Z" />
      <path d="M30.4,18.9c0,.3-.2.5-.4.5h-2.8c-.2,0-.4-.2-.4-.5v-9.6c0-.6-.5-1.2-1.3-1.2s-1.3.7-1.3,1.4v9.5c0,.2-.2.5-.7.5h-2.6c-.3,0-.5-.2-.5-.4V.8c0-.3.2-.5.5-.5h2.7c.3,0,.5.2.5.5v4.9c.7-.4,1.5-.6,2.3-.6,2.3,0,4,1.7,4,4.3v9.6Z" />
      <path d="M41.3,14.2c.3,0,.4.1.4.4v.9c0,2.3-2,4.2-4.8,4.2s-5-1.7-5-4.2v-6.3c0-2.3,2.2-4.2,5-4.2s4.8,1.9,4.8,4.2v1.1c0,.4-.1.5-.4.5h-2.5c-.4,0-.6,0-.6-.5v-1c0-.6-.5-1.2-1.3-1.2s-1.4.6-1.4,1.2v6.1c0,.6.6,1.2,1.4,1.2s1.3-.6,1.3-1.2v-.7c0-.4.1-.5.4-.5h2.6Z" />
      <path d="M53.5,6.2c0,.4,0,.6-.5.6h-2.7c-.4,0-.5-.2-.5-.6v-1.3c0-.8-.5-1.7-1.5-1.7s-1.6.8-1.6,1.6v9.7c0,.9.6,1.7,1.6,1.7s1.6-.8,1.6-1.7v-1.6c0-.4.1-.5.4-.5h2.7c.3,0,.5,0,.5.5v1.9c0,3-2.3,4.8-5.3,4.8s-5.4-1.8-5.4-4.8V4.8c0-2.7,2.3-4.8,5.4-4.8s5.2,2.4,5.2,4.9v1.3Z" />
      <path d="M62,7.6c0,.4-.3.5-.7.5h-.7c-1.2,0-2,.8-2,2.1v8.4c0,.5-.4.6-.7.6h-2.6c-.2,0-.4-.2-.4-.5v-9.1c0-3.5,2.8-4.8,5.1-4.8s1.2,0,1.6.1c.3,0,.4.3.4.5v2Z" />
      <path d="M66.8,3.5c0,.5-.3.7-.8.7h-2.4c-.5,0-.8-.2-.8-.7v-1.9c0-.4.2-.7.8-.7h2.4c.6,0,.8.3.8.7v1.9ZM63,5.7c0-.3.2-.4.5-.4h2.7c.3,0,.6.2.6.4v13.2c0,.3-.2.5-.6.5h-2.7c-.3,0-.5-.2-.5-.5V5.7Z" />
      <path d="M75.2,19.4c-.2,0-.4-.2-.4-.5v-9.7c0-.6-.5-1.2-1.3-1.2s-1.3.6-1.3,1.2v9.6c0,.3-.2.5-.4.5h-2.8c-.2,0-.4-.2-.4-.5v-9.6c0-2.2,2-4.3,4.9-4.3s5.1,1.9,5.1,4.3v9.6c0,.3-.2.5-.4.5h-2.8Z" />
      <path d="M90.7,5.2c.3,0,.5.1.5.4v1.8c0,.3-.1.4-.5.4h-1.1c.2.5.3,1.1.3,1.8v1.6c0,3-2.2,4.8-5,4.8s-.9,0-1.3-.1c-.2.2-.3.5-.3.9h0c0,.6.5,1,1.1,1h2.4c2,0,3.8.5,3.8,3.2v2.4c0,.2-.1.4-.4.4h-3c-.2,0-.4-.2-.4-.3v-1.5c0-.8-.4-1.1-1.2-1.1h-2.6s-.2,0-.2,0c-1.8,0-3-1.6-3-3v-.5c0-1.1.5-2.1,1.1-2.9-.7-.8-1.1-1.8-1.1-3.1v-1.7c0-2.8,2.2-4.7,5-4.7s1.2,0,1.8.3h4ZM86.2,9.3c0-.6-.5-1.2-1.3-1.2s-1.3.6-1.3,1.2v2.5c0,.6.5,1.2,1.3,1.2s1.3-.6,1.3-1.2v-2.5Z" />
      <path d="M101.8,15.4c0,2.3-1.9,4.2-4.7,4.2s-5-1.9-5-4.2v-6.3c0-2.3,2.2-4.2,5-4.2s4.7,1.9,4.7,4.2v3.4c0,.3-.2.5-.6.5h-5.4v2.3c0,.6.6,1.2,1.4,1.2s1.3-.6,1.3-1.2v-.4c0-.2.1-.3.4-.3h2.5c.2,0,.4,0,.4.4v.4ZM95.8,9.2v1.5h2.7v-1.5c0-.6-.5-1.2-1.3-1.2s-1.4.6-1.4,1.2Z" />
    </svg>
